<?xml version="1.0" encoding="UTF-8"?>
<svg xmlns="http://www.w3.org/2000/svg" xmlns:xlink="http://www.w3.org/1999/xlink" width="100px" height="84px" viewBox="0 0 99 84" version="1.1">
<g id="surface1">
<path style=" stroke:none;fill-rule:nonzero;fill:rgb(100%,100%,100%);fill-opacity:1;" d="M 41.515625 3.210938 C 47.433594 0.6875 53.945312 -0.34375 60.351562 0.0976562 C 66.621094 0.574219 72.78125 2.484375 78.199219 5.710938 C 83.050781 8.59375 87.3125 12.480469 90.640625 17.0625 C 94.523438 22.398438 97.113281 28.683594 98.089844 35.230469 C 98.84375 40.417969 98.691406 45.761719 97.457031 50.863281 C 98.257812 52.441406 98.660156 54.261719 98.390625 56.027344 C 98.082031 58.6875 96.386719 61.117188 94.03125 62.351562 C 93.496094 62.722656 92.699219 62.726562 92.332031 63.320312 C 88.039062 70.246094 81.695312 75.875 74.300781 79.226562 C 72.753906 79.953125 71.148438 80.527344 69.53125 81.070312 C 69.449219 81.089844 69.28125 81.125 69.199219 81.144531 C 61.421875 83.546875 52.933594 83.464844 45.167969 81.046875 C 39.355469 79.195312 33.941406 76.066406 29.46875 71.882812 C 25.1875 67.910156 21.75 63.015625 19.472656 57.617188 C 18.457031 55.246094 17.722656 52.769531 17.121094 50.265625 C 16.050781 49.605469 14.757812 49.417969 13.523438 49.5625 C 10.976562 49.828125 8.566406 50.753906 6.101562 51.390625 C 7.859375 50.085938 9.773438 49 11.761719 48.09375 C 8.605469 48.136719 5.511719 48.882812 2.453125 49.601562 C 1.632812 49.804688 0.8125 50.015625 0 50.25 C 3.152344 46.855469 7.296875 44.558594 11.570312 42.914062 C 10.109375 42.726562 8.628906 42.550781 7.230469 42.050781 C 5.921875 41.609375 4.703125 40.925781 3.609375 40.082031 C 4.664062 40.050781 5.722656 40.117188 6.777344 39.996094 C 10.027344 40.019531 13.4375 39.839844 16.335938 38.195312 C 16.871094 31.097656 19.292969 24.15625 23.273438 18.277344 C 27.738281 11.621094 34.152344 6.304688 41.515625 3.210938 Z M 41.515625 3.210938 "/>
<path style=" stroke:none;fill-rule:nonzero;fill:rgb(2.352941%,1.176471%,1.960784%);fill-opacity:1;" d="M 52.835938 1.582031 C 58.046875 1.042969 63.378906 1.398438 68.414062 2.898438 C 79.070312 5.957031 88.269531 13.730469 93.128906 23.757812 C 95.53125 28.613281 96.929688 33.980469 97.175781 39.402344 C 97.140625 40.535156 97.34375 41.667969 97.195312 42.800781 C 97.164062 45.03125 96.863281 47.25 96.457031 49.445312 C 96.160156 49.164062 95.859375 48.894531 95.546875 48.636719 C 95.996094 45.742188 96.320312 42.800781 96.132812 39.871094 C 96.09375 39.105469 96.070312 38.339844 95.996094 37.574219 C 95.386719 31.492188 93.347656 25.550781 90.042969 20.417969 C 86.722656 15.203125 82.15625 10.800781 76.839844 7.683594 C 71.332031 4.453125 65.019531 2.582031 58.640625 2.429688 C 57.875 2.316406 57.097656 2.402344 56.328125 2.375 L 56.226562 2.449219 C 49.53125 2.546875 42.90625 4.617188 37.199219 8.113281 C 31.601562 11.5625 26.890625 16.449219 23.648438 22.195312 C 21.148438 26.585938 19.53125 31.476562 18.886719 36.492188 C 18.585938 36.859375 18.140625 37.066406 17.742188 37.3125 C 18.46875 29.839844 21.421875 22.621094 26.027344 16.722656 C 30.832031 10.542969 37.46875 5.820312 44.871094 3.355469 C 47.457031 2.496094 50.132812 1.902344 52.835938 1.582031 Z M 52.835938 1.582031 "/>
<path style=" stroke:none;fill-rule:nonzero;fill:rgb(1.176471%,0.784314%,1.176471%);fill-opacity:1;" d="M 54.59375 4.8125 C 55.382812 4.410156 56.484375 4.347656 57.144531 5.03125 C 57.59375 5.441406 57.664062 6.082031 57.816406 6.640625 C 57.386719 6.679688 56.953125 6.703125 56.523438 6.699219 C 56.375 6.421875 56.371094 5.988281 56.03125 5.875 C 55.757812 5.800781 55.476562 5.882812 55.203125 5.910156 C 55.179688 6.144531 55.167969 6.375 55.164062 6.605469 C 55.941406 6.894531 56.8125 7.058594 57.421875 7.671875 C 58.101562 8.316406 58.050781 9.425781 57.640625 10.207031 C 57.035156 11.355469 55.332031 11.515625 54.382812 10.722656 C 53.875 10.242188 53.78125 9.519531 53.675781 8.863281 C 54.136719 8.863281 54.601562 8.863281 55.0625 8.859375 C 55.164062 9.140625 55.203125 9.457031 55.394531 9.703125 C 55.582031 9.988281 55.945312 9.875 56.234375 9.890625 C 56.433594 9.535156 56.546875 9.109375 56.414062 8.710938 C 55.96875 8.285156 55.308594 8.292969 54.78125 8.015625 C 53.570312 7.484375 53.441406 5.480469 54.59375 4.8125 Z M 54.59375 4.8125 "/>
<path style=" stroke:none;fill-rule:nonzero;fill:rgb(1.568627%,0.784314%,1.960784%);fill-opacity:1;" d="M 60.660156 4.878906 C 61.417969 4.722656 62.363281 4.746094 62.921875 5.371094 C 63.382812 5.84375 63.441406 6.546875 63.433594 7.171875 C 63.035156 7.160156 62.636719 7.128906 62.242188 7.078125 C 62.113281 6.792969 62.035156 6.488281 61.917969 6.195312 C 61.65625 6.15625 61.34375 5.941406 61.105469 6.136719 C 60.796875 6.28125 60.753906 6.765625 61.085938 6.910156 C 61.734375 7.253906 62.472656 7.523438 62.925781 8.140625 C 63.5 8.859375 63.332031 9.9375 62.84375 10.652344 C 62.0625 11.769531 60.160156 11.710938 59.414062 10.59375 C 59.066406 10.078125 59.09375 9.421875 59.070312 8.828125 C 59.527344 8.886719 59.980469 8.949219 60.4375 8.972656 C 60.519531 9.324219 60.484375 9.746094 60.753906 10.019531 C 60.910156 10.113281 61.09375 10.152344 61.265625 10.203125 C 61.355469 10.152344 61.527344 10.054688 61.617188 10.003906 C 61.804688 9.667969 61.84375 9.289062 61.773438 8.910156 C 61.160156 8.519531 60.410156 8.328125 59.898438 7.792969 C 59.179688 6.890625 59.492188 5.234375 60.660156 4.878906 Z M 60.660156 4.878906 "/>
<path style=" stroke:none;fill-rule:nonzero;fill:rgb(1.568627%,0.784314%,1.960784%);fill-opacity:1;" d="M 48.390625 5.835938 C 48.953125 5.386719 49.730469 5.277344 50.414062 5.457031 C 51.214844 5.742188 51.753906 6.53125 51.867188 7.363281 C 51.414062 7.480469 50.964844 7.59375 50.507812 7.660156 C 50.4375 7.4375 50.367188 7.214844 50.296875 6.992188 C 50.058594 6.9375 49.816406 6.882812 49.574219 6.828125 C 49.335938 6.996094 49.027344 7.132812 48.964844 7.453125 C 49.105469 8.308594 49.285156 9.15625 49.484375 10 C 49.589844 10.570312 50.390625 10.753906 50.769531 10.339844 C 51.027344 10.113281 50.929688 9.734375 50.980469 9.433594 C 51.394531 9.300781 51.816406 9.171875 52.25 9.113281 C 52.542969 9.515625 52.515625 10.070312 52.398438 10.535156 C 52.097656 11.347656 51.261719 11.789062 50.472656 11.992188 C 49.433594 12.140625 48.257812 11.429688 48.097656 10.339844 C 47.914062 9.386719 47.71875 8.433594 47.558594 7.480469 C 47.425781 6.808594 47.886719 6.214844 48.390625 5.835938 Z M 48.390625 5.835938 "/>
<path style=" stroke:none;fill-rule:nonzero;fill:rgb(1.568627%,0.784314%,1.960784%);fill-opacity:1;" d="M 69.8125 9.078125 C 70.152344 8.363281 70.796875 7.652344 71.652344 7.691406 C 72.835938 7.699219 74.175781 8.679688 73.976562 9.988281 C 73.804688 10.890625 73.285156 11.671875 72.964844 12.519531 C 72.597656 13.292969 72.328125 14.113281 71.890625 14.847656 C 71.472656 14.738281 71.09375 14.523438 70.703125 14.347656 C 70.800781 13.761719 71.121094 13.25 71.34375 12.707031 C 71.703125 11.847656 72.113281 11.003906 72.457031 10.136719 C 72.597656 9.847656 72.414062 9.566406 72.324219 9.296875 C 71.957031 9.246094 71.453125 9.121094 71.257812 9.542969 C 70.636719 10.910156 70.050781 12.296875 69.429688 13.667969 C 68.925781 13.617188 68.472656 13.367188 68.039062 13.113281 C 68.621094 11.765625 69.226562 10.425781 69.8125 9.078125 Z M 69.8125 9.078125 "/>
<path style=" stroke:none;fill-rule:nonzero;fill:rgb(1.960784%,0.784314%,1.960784%);fill-opacity:1;" d="M 37.285156 10.5625 C 37.679688 10.320312 38.074219 10.070312 38.492188 9.863281 C 39.425781 11.351562 40.234375 12.921875 41.15625 14.417969 C 41.847656 14.027344 42.519531 13.601562 43.222656 13.238281 C 43.457031 13.628906 43.683594 14.027344 43.890625 14.433594 C 42.777344 15.039062 41.703125 15.707031 40.601562 16.328125 C 39.492188 14.40625 38.410156 12.46875 37.285156 10.5625 Z M 37.285156 10.5625 "/>
<path style=" stroke:none;fill-rule:nonzero;fill:rgb(1.568627%,0.784314%,1.960784%);fill-opacity:1;" d="M 75.78125 11.039062 C 76.773438 10.371094 78.292969 10.757812 78.851562 11.820312 C 79.019531 12.101562 79.097656 12.421875 79.203125 12.730469 C 79.175781 13.164062 79.117188 13.621094 78.847656 13.976562 C 78.265625 14.785156 77.726562 15.625 77.121094 16.410156 C 76.675781 16.96875 75.890625 17.089844 75.226562 16.9375 C 73.988281 16.699219 73.078125 15.265625 73.578125 14.058594 C 73.894531 13.476562 74.320312 12.964844 74.679688 12.40625 C 75.027344 11.9375 75.304688 11.394531 75.78125 11.039062 Z M 75.78125 11.039062 "/>
<path style=" stroke:none;fill-rule:nonzero;fill:rgb(99.607843%,99.607843%,99.607843%);fill-opacity:1;" d="M 76.117188 12.59375 C 76.28125 12.320312 76.566406 12.179688 76.851562 12.054688 C 77.082031 12.160156 77.316406 12.265625 77.542969 12.378906 C 77.667969 12.726562 77.824219 13.140625 77.582031 13.476562 C 77.21875 14.039062 76.835938 14.585938 76.441406 15.125 C 76.082031 15.570312 75.421875 15.59375 74.984375 15.246094 C 74.925781 15.070312 74.863281 14.902344 74.800781 14.730469 C 75.089844 13.9375 75.65625 13.292969 76.117188 12.59375 Z M 76.117188 12.59375 "/>
<path style=" stroke:none;fill-rule:nonzero;fill:rgb(1.568627%,0.784314%,1.568627%);fill-opacity:1;" d="M 33.570312 13.382812 C 34.328125 12.585938 35.777344 12.414062 36.570312 13.253906 C 37.621094 14.402344 38.703125 15.523438 39.726562 16.703125 C 39.394531 17.011719 39.070312 17.335938 38.738281 17.640625 C 37.644531 16.59375 36.703125 15.394531 35.617188 14.34375 C 35.386719 14.097656 35.035156 14.199219 34.742188 14.191406 C 34.554688 14.484375 34.34375 14.894531 34.613281 15.207031 C 35.582031 16.3125 36.597656 17.378906 37.609375 18.445312 C 37.605469 18.539062 37.601562 18.632812 37.601562 18.730469 C 37.253906 19.007812 36.945312 19.324219 36.621094 19.621094 C 35.707031 18.605469 34.75 17.628906 33.847656 16.601562 C 33.597656 16.34375 33.320312 15.980469 32.910156 16.097656 C 32.488281 16.214844 32.230469 16.792969 32.585938 17.125 C 33.589844 18.261719 34.636719 19.359375 35.671875 20.464844 C 35.367188 20.84375 34.996094 21.15625 34.628906 21.472656 C 33.585938 20.382812 32.578125 19.257812 31.542969 18.160156 C 30.941406 17.582031 30.835938 16.632812 31.164062 15.882812 C 31.429688 15.097656 32.234375 14.644531 33.027344 14.609375 C 33.144531 14.175781 33.25 13.71875 33.570312 13.382812 Z M 33.570312 13.382812 "/>
<path style=" stroke:none;fill-rule:nonzero;fill:rgb(0%,0%,0%);fill-opacity:1;" d="M 45.757812 15.617188 C 51.171875 13.113281 57.386719 12.445312 63.210938 13.699219 C 68.832031 14.882812 74.050781 17.882812 77.964844 22.105469 C 80.105469 24.429688 81.871094 27.101562 83.160156 29.992188 C 84.03125 32.054688 84.742188 34.199219 85.097656 36.421875 C 82.167969 35.84375 79.277344 35.058594 76.46875 34.046875 C 75.132812 33.5625 73.8125 33.027344 72.566406 32.339844 C 72.367188 32.238281 72.191406 32.101562 72.054688 31.929688 C 71.492188 31.253906 70.925781 30.582031 70.359375 29.910156 C 70.21875 29.644531 69.910156 29.746094 69.675781 29.734375 C 69.621094 29.460938 69.582031 29.183594 69.546875 28.910156 C 68.992188 28.339844 69.003906 27.527344 68.976562 26.785156 C 68.75 24.527344 68.859375 22.203125 68.199219 20.007812 C 67.332031 18.0625 65.550781 16.488281 63.4375 16.121094 C 61.941406 15.882812 60.394531 16 58.941406 16.417969 C 56.238281 17.183594 53.769531 18.585938 51.425781 20.113281 C 49.308594 21.515625 47.300781 23.074219 45.351562 24.703125 C 42.945312 24.835938 40.722656 25.863281 38.605469 26.953125 C 37.21875 27.632812 35.835938 28.382812 34.3125 28.703125 C 33.558594 28.800781 32.796875 28.859375 32.050781 29.042969 C 34.898438 23.148438 39.828125 18.316406 45.757812 15.617188 Z M 45.757812 15.617188 "/>
<path style=" stroke:none;fill-rule:nonzero;fill:rgb(1.568627%,0.784314%,1.568627%);fill-opacity:1;" d="M 80.671875 14.285156 C 80.933594 14.023438 81.15625 13.648438 81.574219 13.671875 C 82.25 14.5 83.332031 15.046875 83.617188 16.144531 C 83.71875 16.742188 83.585938 17.414062 83.160156 17.863281 C 82.535156 18.570312 81.894531 19.265625 81.234375 19.9375 C 80.703125 20.5 79.839844 20.542969 79.144531 20.320312 C 78.277344 19.847656 77.609375 19.085938 76.890625 18.414062 C 78.113281 17.003906 79.433594 15.683594 80.671875 14.285156 Z M 80.671875 14.285156 "/>
<path style=" stroke:none;fill-rule:nonzero;fill:rgb(99.607843%,100%,99.607843%);fill-opacity:1;" d="M 81.46875 15.648438 C 81.859375 15.886719 82.183594 16.238281 82.207031 16.726562 C 81.511719 17.480469 80.816406 18.242188 80.109375 18.988281 C 79.890625 18.980469 79.667969 18.980469 79.453125 18.972656 C 79.265625 18.792969 79.082031 18.609375 78.894531 18.429688 C 79.765625 17.515625 80.625 16.589844 81.46875 15.648438 Z M 81.46875 15.648438 "/>
<path style=" stroke:none;fill-rule:nonzero;fill:rgb(0%,0%,0%);fill-opacity:1;" d="M 55.144531 20.757812 C 57.277344 19.523438 59.546875 18.359375 62.019531 18.074219 C 63.589844 17.859375 65.359375 18.328125 66.339844 19.652344 C 67.140625 20.535156 67.230469 21.78125 67.339844 22.910156 C 67.480469 24.046875 67.417969 25.199219 67.589844 26.332031 C 67.152344 26.417969 66.71875 26.542969 66.269531 26.582031 C 66.039062 26.472656 65.8125 26.363281 65.609375 26.210938 C 65.53125 25.902344 65.484375 25.589844 65.4375 25.273438 C 63.632812 25.613281 61.730469 25.988281 60.253906 27.160156 C 59.511719 27.730469 59.074219 28.613281 58.921875 29.527344 C 58.917969 29.804688 58.914062 30.082031 58.933594 30.359375 C 59.183594 30.570312 59.539062 30.511719 59.839844 30.589844 C 59.421875 31.367188 59.042969 32.183594 58.929688 33.070312 C 58.929688 33.222656 58.929688 33.53125 58.929688 33.6875 C 59.632812 33.574219 60.234375 33.167969 60.894531 32.925781 C 60.867188 33.082031 60.808594 33.398438 60.78125 33.558594 C 60.765625 33.773438 60.753906 33.992188 60.746094 34.207031 C 60.882812 34.546875 61.046875 34.875 61.242188 35.191406 C 62.191406 34.980469 63.011719 34.429688 63.921875 34.101562 C 63.894531 34.234375 63.84375 34.5 63.816406 34.632812 C 63.851562 34.734375 63.925781 34.945312 63.960938 35.046875 C 64.9375 34.808594 65.863281 34.386719 66.6875 33.800781 C 67.757812 33.109375 68.800781 32.199219 70.105469 32.027344 C 70.835938 32.488281 71.171875 33.445312 71.945312 33.890625 C 73.195312 34.652344 74.554688 35.210938 75.914062 35.738281 C 78.714844 36.785156 81.589844 37.613281 84.511719 38.230469 C 86.027344 38.566406 87.574219 38.792969 89.046875 39.308594 C 89.871094 39.609375 90.699219 40.113281 91.0625 40.957031 C 91.75 42.605469 91.742188 44.558594 90.933594 46.164062 C 90.210938 47.507812 88.917969 48.605469 87.40625 48.898438 C 81.351562 50.308594 75.203125 51.253906 69.046875 52.078125 C 67.21875 52.28125 65.394531 52.503906 63.5625 52.660156 C 59.335938 53.042969 55.09375 53.253906 50.847656 53.203125 C 49.453125 53.222656 48.050781 53.191406 46.691406 52.867188 C 46.160156 52.664062 45.613281 52.433594 45.230469 51.996094 C 44.703125 51.480469 44.558594 50.730469 44.421875 50.035156 C 44.199219 48.757812 43.894531 47.488281 43.851562 46.1875 C 43.804688 45.054688 44.1875 43.976562 44.398438 42.878906 C 45.058594 39.566406 45.574219 36.226562 46.414062 32.953125 C 46.527344 32.550781 46.464844 32.125 46.574219 31.726562 C 47.015625 29.863281 47.539062 28.023438 48.015625 26.171875 C 48.074219 26.011719 48.09375 25.820312 48.226562 25.707031 C 50.429688 23.917969 52.707031 22.210938 55.144531 20.757812 Z M 55.144531 20.757812 "/>
<path style=" stroke:none;fill-rule:nonzero;fill:rgb(1.568627%,0.784314%,1.568627%);fill-opacity:1;" d="M 80.519531 22.0625 C 82.304688 20.761719 84.085938 19.453125 85.871094 18.15625 C 86.511719 19.082031 87.183594 19.980469 87.835938 20.902344 C 87.464844 21.164062 87.117188 21.457031 86.71875 21.671875 C 86.28125 21.171875 85.914062 20.613281 85.53125 20.070312 C 85.25 20.269531 84.960938 20.464844 84.671875 20.660156 C 84.691406 21.109375 85.058594 21.417969 85.269531 21.785156 C 84.929688 22.042969 84.589844 22.292969 84.238281 22.527344 C 84.003906 22.199219 83.777344 21.867188 83.515625 21.5625 C 83.210938 21.742188 82.925781 21.949219 82.636719 22.152344 C 82.585938 22.214844 82.488281 22.339844 82.4375 22.402344 C 82.824219 22.933594 83.214844 23.460938 83.578125 24.007812 C 83.214844 24.285156 82.84375 24.550781 82.460938 24.796875 C 81.824219 23.875 81.109375 23.011719 80.519531 22.0625 Z M 80.519531 22.0625 "/>
<path style=" stroke:none;fill-rule:nonzero;fill:rgb(1.176471%,0.784314%,1.960784%);fill-opacity:1;" d="M 28.335938 18.890625 C 28.480469 18.695312 28.597656 18.46875 28.796875 18.324219 C 29.199219 18.503906 29.515625 18.820312 29.871094 19.078125 C 29.589844 19.46875 29.304688 19.847656 29.046875 20.257812 C 30.460938 21.273438 31.855469 22.320312 33.269531 23.332031 C 33.058594 23.730469 32.785156 24.089844 32.511719 24.449219 C 31.074219 23.421875 29.660156 22.355469 28.21875 21.332031 C 27.976562 21.699219 27.742188 22.074219 27.460938 22.410156 C 27.011719 22.386719 26.699219 21.945312 26.324219 21.730469 C 26.9375 20.742188 27.683594 19.847656 28.335938 18.890625 Z M 28.335938 18.890625 "/>
<path style=" stroke:none;fill-rule:nonzero;fill:rgb(1.176471%,0.392157%,1.568627%);fill-opacity:1;" d="M 24.75 24.667969 C 24.988281 24.199219 25.230469 23.730469 25.523438 23.289062 C 27.414062 24.324219 29.351562 25.285156 31.210938 26.375 C 31.234375 26.894531 30.796875 27.359375 30.554688 27.808594 C 29.773438 27.433594 29.054688 26.914062 28.238281 26.621094 C 28.117188 26.890625 27.992188 27.160156 27.871094 27.429688 C 28.609375 27.875 29.425781 28.183594 30.125 28.695312 C 29.902344 29.15625 29.65625 29.601562 29.417969 30.054688 C 27.476562 29.074219 25.578125 28.011719 23.660156 26.996094 C 23.585938 26.703125 23.835938 26.433594 23.941406 26.171875 C 24.078125 25.976562 24.132812 25.671875 24.371094 25.589844 C 25.148438 25.9375 25.867188 26.410156 26.644531 26.765625 C 26.789062 26.496094 26.9375 26.226562 27.09375 25.960938 C 26.316406 25.523438 25.519531 25.121094 24.75 24.667969 Z M 24.75 24.667969 "/>
<path style=" stroke:none;fill-rule:nonzero;fill:rgb(3.529412%,1.176471%,2.745098%);fill-opacity:1;" d="M 83.144531 25.402344 C 83.316406 24.929688 83.902344 24.898438 84.273438 25.148438 C 84.433594 25.484375 84.449219 25.839844 84.261719 26.167969 C 84.078125 26.242188 83.890625 26.316406 83.707031 26.394531 C 83.363281 26.203125 82.863281 25.855469 83.144531 25.402344 Z M 83.144531 25.402344 "/>
<path style=" stroke:none;fill-rule:nonzero;fill:rgb(2.745098%,1.568627%,2.352941%);fill-opacity:1;" d="M 60.570312 28.503906 C 61.976562 27.285156 63.746094 26.667969 65.484375 26.121094 L 65.609375 26.210938 C 65.8125 26.363281 66.039062 26.472656 66.269531 26.582031 C 64.335938 27.347656 62.476562 28.285156 60.570312 29.117188 C 60.566406 28.910156 60.566406 28.707031 60.570312 28.503906 Z M 60.570312 28.503906 "/>
<path style=" stroke:none;fill-rule:nonzero;fill:rgb(1.176471%,0.784314%,1.568627%);fill-opacity:1;" d="M 84.765625 27.507812 C 85.019531 26.902344 85.601562 26.53125 86.175781 26.277344 C 86.375 26.734375 86.582031 27.1875 86.777344 27.648438 C 86.378906 27.863281 86.011719 28.179688 86.097656 28.679688 C 86.324219 28.738281 86.566406 28.941406 86.808594 28.816406 C 88.257812 28.226562 89.644531 27.492188 91.074219 26.867188 C 91.28125 27.351562 91.515625 27.820312 91.707031 28.3125 C 90.667969 28.816406 89.605469 29.289062 88.5625 29.796875 C 87.84375 30.085938 87.097656 30.519531 86.296875 30.367188 C 85.066406 30.160156 84.226562 28.65625 84.765625 27.507812 Z M 84.765625 27.507812 "/>
<path style=" stroke:none;fill-rule:nonzero;fill:rgb(0%,0%,0%);fill-opacity:1;" d="M 35.554688 30.71875 C 39.214844 29.976562 42.167969 27.195312 45.929688 26.804688 C 45.492188 28.59375 44.96875 30.359375 44.539062 32.152344 C 44.414062 32.714844 44.433594 33.300781 44.261719 33.851562 C 43.28125 37.675781 42.792969 41.605469 41.882812 45.445312 C 41.636719 46.597656 41.773438 47.789062 41.988281 48.933594 C 42.097656 49.699219 42.257812 50.464844 42.554688 51.183594 C 41.304688 51.238281 40.074219 51.667969 39.007812 52.324219 C 37.789062 53.042969 36.875 54.3125 35.410156 54.546875 C 33.570312 54.683594 31.992188 53.492188 30.195312 53.355469 C 29.542969 53.351562 28.933594 53.679688 28.277344 53.652344 C 28.398438 53.566406 28.515625 53.476562 28.636719 53.390625 C 29.558594 52.90625 30.472656 52.34375 31.519531 52.195312 C 32.800781 52.046875 34.085938 51.957031 35.355469 51.746094 C 36.050781 51.617188 36.691406 51.289062 37.21875 50.820312 C 37.917969 50.230469 39.0625 50.101562 39.382812 49.128906 C 39.449219 48.433594 39.304688 47.316406 38.445312 47.222656 C 37.710938 47.328125 37.105469 47.824219 36.539062 48.273438 C 35.597656 49.019531 34.746094 49.890625 33.730469 50.539062 C 33.269531 50.859375 32.691406 50.765625 32.167969 50.773438 C 31.394531 50.761719 30.660156 50.464844 29.890625 50.40625 C 28.730469 50.53125 27.621094 50.929688 26.519531 51.304688 C 25.675781 51.566406 24.816406 51.855469 23.921875 51.808594 C 22.707031 51.773438 21.550781 51.328125 20.480469 50.785156 C 21.21875 50.761719 21.960938 50.828125 22.695312 50.703125 C 25.175781 50.347656 27.421875 49.132812 29.835938 48.535156 C 30.609375 48.304688 31.4375 48.539062 32.199219 48.242188 C 33.335938 47.84375 34.410156 46.886719 34.566406 45.628906 C 34.644531 45.140625 34.453125 44.6875 34.230469 44.273438 C 33.542969 43.644531 32.589844 44.023438 31.886719 44.410156 C 29.855469 45.570312 28.183594 47.265625 26.167969 48.445312 C 25.621094 48.757812 24.996094 48.945312 24.367188 48.917969 C 23.015625 48.882812 21.71875 48.449219 20.390625 48.242188 C 19.167969 48.011719 17.917969 48.054688 16.675781 48.105469 C 19.011719 46.96875 21.671875 47.085938 24.171875 46.625 C 25.085938 46.449219 26.082031 46.324219 26.832031 45.71875 C 27.128906 45.503906 27.140625 45.105469 27.1875 44.777344 C 26.875 43.890625 26.148438 43.046875 25.152344 43.027344 C 23.605469 43.074219 22.320312 44.058594 21.074219 44.875 C 20.214844 45.433594 19.34375 46.242188 18.242188 46.113281 C 17.113281 45.957031 16.007812 45.582031 14.855469 45.597656 L 14.753906 45.53125 C 13.644531 45.511719 12.539062 45.628906 11.449219 45.835938 C 12.367188 45.257812 13.292969 44.652344 14.347656 44.359375 C 15.589844 43.992188 16.90625 44.140625 18.171875 43.90625 C 20.277344 43.308594 21.636719 41.414062 23.519531 40.402344 C 24.085938 40.128906 24.722656 39.898438 25.355469 40.039062 C 26.945312 40.296875 27.890625 41.859375 29.414062 42.28125 C 30.769531 42.617188 32.191406 42.097656 33.292969 41.292969 C 33.886719 40.875 34.375 40.277344 34.539062 39.550781 C 34.265625 38.785156 33.3125 38.632812 32.605469 38.699219 C 31.425781 38.804688 30.730469 39.898438 29.730469 40.402344 C 28.246094 40.238281 27.160156 39.097656 25.792969 38.613281 C 24.914062 38.390625 23.898438 38.496094 23.183594 39.105469 C 22.050781 40.023438 20.863281 40.945312 19.441406 41.359375 C 17.789062 41.898438 16.007812 41.628906 14.394531 41.085938 C 16.082031 40.910156 17.792969 40.550781 19.253906 39.644531 C 21.042969 38.570312 22.378906 36.65625 24.523438 36.25 C 25.71875 35.933594 26.902344 36.476562 27.929688 37.046875 C 28.578125 37.371094 29.28125 37.757812 30.03125 37.613281 C 31.164062 37.355469 31.984375 36.476562 32.9375 35.878906 C 33.386719 35.582031 34 35.558594 34.339844 35.097656 C 34.628906 34.859375 34.53125 34.464844 34.558594 34.132812 C 34.261719 33.804688 33.863281 33.546875 33.40625 33.636719 C 31.917969 33.765625 31.039062 35.226562 29.652344 35.625 C 29.128906 35.738281 28.628906 35.492188 28.136719 35.339844 C 27.320312 35.054688 26.46875 34.84375 25.597656 34.882812 C 24.800781 34.84375 24.042969 35.121094 23.265625 35.257812 C 23.632812 34.933594 23.992188 34.585938 24.449219 34.394531 C 25.535156 33.898438 26.765625 34.113281 27.90625 33.855469 C 28.945312 33.601562 29.738281 32.839844 30.628906 32.292969 C 31.558594 31.65625 32.605469 31.191406 33.710938 30.976562 C 34.316406 30.828125 34.945312 30.859375 35.554688 30.71875 Z M 35.554688 30.71875 "/>
<path style=" stroke:none;fill-rule:nonzero;fill:rgb(6.666667%,1.960784%,2.352941%);fill-opacity:1;" d="M 61.585938 30.664062 C 62.871094 29.742188 64.109375 28.691406 65.585938 28.085938 C 65.253906 28.46875 64.875 28.804688 64.476562 29.109375 C 62.960938 30.296875 61.421875 31.449219 59.84375 32.550781 C 60.160156 31.726562 60.949219 31.226562 61.585938 30.664062 Z M 61.585938 30.664062 "/>
<path style=" stroke:none;fill-rule:nonzero;fill:rgb(0.784314%,0.784314%,1.176471%);fill-opacity:1;" d="M 66.902344 29.5625 C 67.339844 29.410156 67.8125 29.367188 68.269531 29.476562 C 68.304688 30.308594 67.507812 30.796875 66.980469 31.308594 C 65.332031 32.632812 63.410156 33.5625 61.46875 34.355469 C 61.582031 33.542969 61.859375 32.765625 62.144531 32 C 63.675781 31.089844 65.207031 30.132812 66.902344 29.5625 Z M 66.902344 29.5625 "/>
<path style=" stroke:none;fill-rule:nonzero;fill:rgb(1.568627%,0.392157%,1.568627%);fill-opacity:1;" d="M 89.511719 31.675781 C 89.847656 31.050781 90.578125 30.804688 91.238281 30.730469 C 92.515625 30.75 93.238281 32.265625 92.945312 33.386719 C 92.746094 34.152344 92.003906 34.539062 91.332031 34.8125 C 91.214844 34.394531 91.109375 33.972656 91.003906 33.554688 C 91.234375 33.355469 91.667969 33.273438 91.667969 32.902344 C 91.675781 32.683594 91.628906 32.464844 91.605469 32.246094 C 91.390625 32.179688 91.175781 32.121094 90.957031 32.070312 C 90.90625 32.164062 90.800781 32.339844 90.75 32.433594 C 90.71875 33.339844 90.660156 34.386719 89.9375 35.035156 C 89.40625 35.578125 88.582031 35.566406 87.886719 35.460938 C 86.683594 35.136719 86.128906 33.625 86.5625 32.515625 C 86.875 31.839844 87.585938 31.519531 88.242188 31.277344 C 88.378906 31.726562 88.492188 32.179688 88.601562 32.636719 C 88.253906 32.851562 87.652344 33.019531 87.75 33.546875 C 87.691406 33.824219 87.964844 33.953125 88.125 34.125 C 88.472656 34.089844 88.921875 34.140625 89.132812 33.789062 C 89.3125 33.09375 89.203125 32.335938 89.511719 31.675781 Z M 89.511719 31.675781 "/>
<path style=" stroke:none;fill-rule:nonzero;fill:rgb(99.607843%,99.607843%,99.215686%);fill-opacity:1;" d="M 51.414062 38.46875 C 51.824219 37.109375 53.148438 36.3125 54.488281 36.148438 C 55.554688 36.082031 56.714844 36.25 57.5625 36.964844 C 58.140625 37.414062 58.363281 38.148438 58.5625 38.824219 C 58.890625 38.824219 59.21875 38.832031 59.546875 38.855469 C 59.601562 37.984375 60.34375 37.328125 61.113281 37.042969 C 61.589844 36.847656 62.042969 37.121094 62.457031 37.324219 C 62.8125 37.152344 63.125 36.824219 63.550781 36.882812 C 63.917969 36.84375 64.285156 37.195312 64.632812 36.988281 C 65.148438 36.699219 65.8125 36.609375 66.332031 36.949219 C 66.871094 37.203125 67.054688 37.820312 67.195312 38.355469 C 68.277344 37.976562 69.578125 37.894531 70.535156 38.640625 C 70.8125 38.515625 71.089844 38.382812 71.367188 38.25 C 71.566406 37.316406 72.585938 36.707031 73.492188 36.945312 C 74.5 37.164062 75.148438 38.441406 74.496094 39.328125 C 74.652344 39.867188 74.695312 40.441406 74.488281 40.976562 C 74.894531 41.382812 75.332031 41.871094 75.238281 42.492188 C 75.3125 43.335938 74.695312 44.007812 74.054688 44.449219 C 74.464844 45.078125 74.210938 45.832031 74.449219 46.507812 C 74.605469 47.152344 74.484375 47.902344 73.96875 48.359375 C 73.257812 49.125 72.132812 49.011719 71.191406 49.183594 C 71.023438 49.074219 70.851562 48.960938 70.679688 48.855469 C 69.722656 49.308594 68.542969 49.390625 67.667969 48.71875 C 67.320312 49.046875 66.90625 49.285156 66.449219 49.421875 C 65.980469 50.066406 65.367188 50.710938 64.550781 50.855469 C 63.765625 50.882812 63.21875 50.171875 63.078125 49.453125 C 62.289062 49.703125 61.472656 49.589844 60.707031 49.324219 C 60.035156 49.867188 59.101562 49.929688 58.304688 49.660156 C 57.960938 50.332031 57.480469 50.945312 56.796875 51.28125 C 55.332031 52.019531 53.324219 51.773438 52.273438 50.4375 C 51.394531 49.347656 51.539062 47.644531 52.574219 46.703125 C 52.417969 46.367188 52.300781 46.015625 52.238281 45.652344 C 52.03125 45.589844 51.828125 45.527344 51.621094 45.464844 C 51.425781 45.570312 51.230469 45.671875 51.035156 45.777344 C 50 45.78125 48.953125 45.675781 47.9375 45.945312 C 47.652344 45.738281 47.308594 45.582031 47.121094 45.269531 C 46.945312 44.953125 46.980469 44.578125 46.972656 44.226562 C 45.648438 43.835938 45.21875 41.972656 46.136719 40.980469 C 46.707031 40.363281 47.589844 40.261719 48.378906 40.296875 C 48.878906 40.054688 49.472656 39.726562 50.007812 40.097656 C 50.679688 40.394531 50.585938 41.234375 50.929688 41.773438 C 51.441406 42.117188 52.011719 41.632812 52.5625 41.628906 C 51.453125 41.046875 51.144531 39.617188 51.414062 38.46875 Z M 51.414062 38.46875 "/>
<path style=" stroke:none;fill-rule:nonzero;fill:rgb(2.352941%,1.176471%,1.960784%);fill-opacity:1;" d="M 53.917969 37.3125 C 54.816406 37.042969 55.84375 37.0625 56.664062 37.554688 C 57.527344 38.035156 57.808594 39.320312 57.214844 40.121094 C 56.96875 40.453125 56.558594 40.578125 56.199219 40.734375 C 56.640625 41.902344 57.316406 43.222656 58.59375 43.601562 C 59.332031 43.804688 59.910156 43.070312 60.625 43.136719 C 61.023438 43.148438 60.992188 43.652344 61.027344 43.9375 C 60.363281 44.964844 58.925781 45.144531 57.890625 44.628906 C 56.855469 44.09375 56.1875 43.046875 55.765625 41.984375 C 55.601562 41.558594 55.464844 41.125 55.324219 40.695312 C 55.257812 40.703125 55.121094 40.722656 55.058594 40.730469 C 55.074219 40.988281 55.089844 41.242188 55.109375 41.5 C 55.269531 41.574219 55.433594 41.648438 55.59375 41.722656 C 55.554688 41.914062 55.511719 42.105469 55.460938 42.292969 C 55.164062 42.816406 54.714844 43.238281 54.191406 43.523438 C 54.042969 43.382812 53.855469 43.273438 53.757812 43.085938 C 53.878906 42.734375 54.15625 42.4375 54.167969 42.050781 C 54.1875 41.378906 54.09375 40.714844 54.109375 40.042969 C 54.125 39.644531 53.84375 39.339844 53.636719 39.035156 C 53.960938 38.59375 54.511719 38.671875 54.992188 38.679688 C 55.039062 38.765625 55.085938 38.847656 55.136719 38.933594 C 55.070312 39.285156 55.042969 39.644531 55.03125 40.003906 C 55.464844 40 56 40.058594 56.28125 39.644531 C 56.730469 39.140625 56.316406 38.359375 55.738281 38.1875 C 54.851562 37.882812 53.570312 38.105469 53.214844 39.09375 C 53.363281 39.652344 53.910156 40.054688 53.875 40.664062 C 53.640625 40.753906 53.390625 40.960938 53.132812 40.820312 C 52.40625 40.445312 52.160156 39.496094 52.394531 38.75 C 52.578125 38.027344 53.230469 37.511719 53.917969 37.3125 Z M 53.917969 37.3125 "/>
<path style=" stroke:none;fill-rule:nonzero;fill:rgb(4.313725%,1.960784%,2.352941%);fill-opacity:1;" d="M 65.191406 37.800781 C 65.429688 37.714844 65.683594 37.773438 65.925781 37.78125 C 66.132812 38.152344 66.269531 38.722656 65.882812 39.027344 C 65.578125 39.144531 65.125 39.125 64.988281 38.773438 C 64.761719 38.453125 64.964844 38.054688 65.191406 37.800781 Z M 65.191406 37.800781 "/>
<path style=" stroke:none;fill-rule:nonzero;fill:rgb(2.745098%,1.176471%,2.352941%);fill-opacity:1;" d="M 60.558594 38.757812 C 60.753906 38.332031 61.195312 38.109375 61.601562 37.925781 C 62.152344 39.191406 61.835938 40.625 62.085938 41.953125 C 62.222656 42.113281 62.378906 42.257812 62.53125 42.410156 C 62.535156 42.492188 62.542969 42.660156 62.546875 42.742188 C 62.011719 43 61.410156 42.933594 60.835938 42.890625 C 60.832031 42.796875 60.824219 42.609375 60.820312 42.515625 C 60.929688 42.347656 61.039062 42.179688 61.125 41.996094 C 61.101562 41.085938 60.980469 40.175781 60.996094 39.261719 C 60.847656 39.097656 60.46875 39.050781 60.558594 38.757812 Z M 60.558594 38.757812 "/>
<path style=" stroke:none;fill-rule:nonzero;fill:rgb(2.745098%,1.176471%,2.352941%);fill-opacity:1;" d="M 62.660156 38.484375 C 62.976562 38.210938 63.300781 37.917969 63.722656 37.832031 C 64.046875 38.566406 63.988281 39.390625 64.066406 40.175781 C 64.125 40.871094 63.921875 41.699219 64.480469 42.234375 C 64.667969 42.234375 64.851562 42.234375 65.039062 42.234375 C 65.113281 42.148438 65.257812 41.972656 65.328125 41.886719 C 65.332031 41.421875 65.332031 40.957031 65.3125 40.492188 C 65.175781 40.457031 64.902344 40.390625 64.769531 40.359375 C 64.894531 39.800781 65.390625 39.476562 65.878906 39.269531 C 66.210938 40.054688 66.054688 40.929688 66.214844 41.746094 C 66.378906 41.917969 66.542969 42.089844 66.710938 42.261719 C 66.703125 42.335938 66.695312 42.484375 66.6875 42.558594 C 66.195312 42.652344 65.691406 42.691406 65.191406 42.699219 C 65.035156 42.582031 64.878906 42.464844 64.722656 42.347656 C 64.351562 43.046875 63.4375 42.832031 62.8125 42.695312 C 62.945312 42.324219 63.253906 41.996094 63.203125 41.578125 C 63.171875 40.910156 63.125 40.242188 63.09375 39.574219 C 63.070312 39.414062 63.050781 39.253906 63.035156 39.097656 C 62.710938 39.039062 62.667969 38.757812 62.660156 38.484375 Z M 62.660156 38.484375 "/>
<path style=" stroke:none;fill-rule:nonzero;fill:rgb(3.529412%,1.960784%,3.137255%);fill-opacity:1;" d="M 72.464844 38.238281 C 72.78125 37.636719 73.910156 37.917969 73.746094 38.652344 C 73.535156 39.011719 73.113281 38.835938 72.785156 38.855469 C 73.140625 39.339844 73.824219 39.785156 73.59375 40.480469 C 73.316406 41.125 72.515625 41.179688 71.929688 41.375 C 71.902344 41.441406 71.839844 41.574219 71.808594 41.640625 C 72.441406 41.96875 73.140625 41.457031 73.777344 41.765625 C 74.085938 41.875 74.199219 42.210938 74.328125 42.480469 C 74.109375 43.546875 72.921875 43.960938 71.960938 43.890625 C 71.550781 43.816406 71.011719 43.757812 70.800781 43.347656 C 70.609375 42.976562 70.957031 42.519531 71.355469 42.589844 C 71.699219 42.835938 72 43.144531 72.382812 43.335938 C 72.730469 43.203125 73.363281 43.144531 73.25 42.617188 C 73.0625 42.351562 72.707031 42.386719 72.425781 42.410156 C 72 42.441406 71.578125 42.441406 71.152344 42.433594 C 71.039062 42.324219 70.933594 42.210938 70.824219 42.101562 C 70.820312 41.960938 70.820312 41.820312 70.820312 41.683594 C 70.992188 41.527344 71.160156 41.371094 71.332031 41.21875 C 71.136719 40.996094 70.839844 40.824219 70.789062 40.511719 C 70.679688 40.160156 70.875 39.839844 71.003906 39.53125 C 71.472656 39.277344 71.984375 39.132812 72.507812 39.058594 C 72.433594 38.796875 72.21875 38.472656 72.464844 38.238281 Z M 72.464844 38.238281 "/>
<path style=" stroke:none;fill-rule:nonzero;fill:rgb(2.745098%,1.568627%,2.352941%);fill-opacity:1;" d="M 68.375 39.515625 C 68.746094 39.28125 69.234375 38.964844 69.660156 39.253906 C 70.125 39.570312 70.058594 40.1875 70.105469 40.675781 C 70.085938 41.089844 70.53125 41.296875 70.558594 41.699219 C 70.175781 42.109375 69.792969 42.804688 69.125 42.558594 C 69.246094 41.75 69.464844 40.871094 69.082031 40.097656 C 68.851562 40.160156 68.621094 40.222656 68.386719 40.28125 C 68.328125 40.605469 68.210938 40.933594 68.257812 41.269531 C 68.296875 41.71875 68.710938 41.972656 68.914062 42.34375 C 68.382812 42.605469 67.789062 42.609375 67.210938 42.574219 C 67.152344 42.5 67.03125 42.351562 66.972656 42.277344 C 67.117188 42.125 67.269531 41.972656 67.421875 41.828125 C 67.464844 41.703125 67.507812 41.578125 67.550781 41.453125 C 67.484375 41.121094 67.453125 40.78125 67.433594 40.445312 C 67.320312 40.421875 67.09375 40.378906 66.980469 40.359375 C 66.984375 40.121094 67.039062 39.894531 67.125 39.675781 C 67.386719 39.5 67.648438 39.320312 67.914062 39.148438 C 68.082031 39.335938 68.195312 39.558594 68.304688 39.785156 C 68.320312 39.714844 68.359375 39.582031 68.375 39.515625 Z M 68.375 39.515625 "/>
<path style=" stroke:none;fill-rule:nonzero;fill:rgb(98.823529%,99.215686%,97.254902%);fill-opacity:1;" d="M 71.621094 40.148438 C 71.734375 39.710938 72.242188 39.742188 72.59375 39.796875 C 72.707031 39.972656 72.796875 40.15625 72.863281 40.359375 C 72.617188 40.507812 72.355469 40.621094 72.089844 40.730469 C 71.90625 40.578125 71.472656 40.484375 71.621094 40.148438 Z M 71.621094 40.148438 "/>
<path style=" stroke:none;fill-rule:nonzero;fill:rgb(2.745098%,1.568627%,3.529412%);fill-opacity:1;" d="M 58.25 39.953125 C 58.921875 39.621094 59.839844 39.847656 60.191406 40.535156 C 60.507812 41.230469 60.527344 42.160156 59.953125 42.726562 C 59.53125 43.195312 58.8125 43.140625 58.257812 43.003906 C 57.09375 42.492188 57.078125 40.46875 58.25 39.953125 Z M 58.25 39.953125 "/>
<path style=" stroke:none;fill-rule:nonzero;fill:rgb(91.764706%,87.45098%,84.313725%);fill-opacity:1;" d="M 55.058594 40.730469 C 55.125 40.722656 55.257812 40.703125 55.324219 40.695312 C 55.464844 41.128906 55.601562 41.558594 55.765625 41.984375 C 55.664062 42.085938 55.5625 42.191406 55.460938 42.296875 C 55.511719 42.105469 55.554688 41.914062 55.59375 41.726562 C 55.433594 41.648438 55.269531 41.574219 55.109375 41.5 C 55.089844 41.246094 55.074219 40.988281 55.058594 40.730469 Z M 55.058594 40.730469 "/>
<path style=" stroke:none;fill-rule:nonzero;fill:rgb(99.215686%,99.607843%,98.823529%);fill-opacity:1;" d="M 58.4375 40.753906 C 58.765625 40.382812 59.449219 40.621094 59.507812 41.105469 C 59.554688 41.507812 59.632812 42.054688 59.199219 42.28125 C 58.898438 42.324219 58.492188 42.359375 58.351562 42.015625 C 58.167969 41.636719 58.132812 41.074219 58.4375 40.753906 Z M 58.4375 40.753906 "/>
<path style=" stroke:none;fill-rule:nonzero;fill:rgb(5.098039%,1.960784%,2.352941%);fill-opacity:1;" d="M 48.851562 41.332031 C 49.074219 41.085938 49.34375 40.925781 49.683594 40.992188 C 49.683594 41.273438 49.726562 41.605469 49.453125 41.78125 C 49.214844 41.839844 48.96875 41.84375 48.722656 41.867188 C 48.757812 42.457031 48.75 43.046875 48.800781 43.632812 C 48.90625 43.765625 49.011719 43.898438 49.117188 44.03125 C 48.828125 44.425781 48.53125 44.945312 47.964844 44.898438 C 48.066406 44.273438 48.40625 43.570312 47.984375 42.988281 C 47.738281 43.378906 47.085938 43.320312 46.839844 42.960938 C 46.492188 42.558594 46.5625 41.847656 47.015625 41.546875 C 47.546875 41.160156 48.246094 41.398438 48.851562 41.332031 Z M 48.851562 41.332031 "/>
<path style=" stroke:none;fill-rule:nonzero;fill:rgb(98.823529%,98.431373%,96.862745%);fill-opacity:1;" d="M 47.183594 42.546875 C 47.246094 42.296875 47.207031 41.960938 47.5 41.855469 C 47.695312 41.8125 47.898438 41.792969 48.101562 41.792969 C 48.113281 42.09375 48.132812 42.398438 48.160156 42.699219 C 47.855469 42.550781 47.511719 42.570312 47.183594 42.546875 Z M 47.183594 42.546875 "/>
<path style=" stroke:none;fill-rule:nonzero;fill:rgb(5.098039%,2.352941%,2.745098%);fill-opacity:1;" d="M 49.453125 41.78125 C 49.566406 41.824219 49.789062 41.90625 49.902344 41.945312 C 49.960938 42.265625 49.960938 42.59375 49.988281 42.921875 C 50.332031 42.746094 50.683594 42.683594 51.023438 42.90625 C 51.058594 43.203125 51.089844 43.503906 51.113281 43.800781 C 51.207031 43.933594 51.300781 44.066406 51.394531 44.203125 C 51.226562 44.40625 51.046875 44.601562 50.863281 44.792969 C 50.753906 44.773438 50.535156 44.730469 50.425781 44.707031 C 50.585938 44.257812 50.707031 43.734375 50.410156 43.3125 C 50.269531 43.363281 50.132812 43.433594 50 43.5 C 50.003906 43.714844 50.011719 43.933594 50.027344 44.148438 C 50.136719 44.328125 50.25 44.503906 50.367188 44.675781 C 50.003906 44.730469 49.636719 44.761719 49.269531 44.769531 C 49.261719 44.710938 49.246094 44.589844 49.238281 44.53125 C 49.332031 44.386719 49.429688 44.242188 49.519531 44.09375 C 49.40625 43.621094 49.414062 43.132812 49.414062 42.652344 C 48.867188 42.523438 49.351562 42.078125 49.453125 41.78125 Z M 49.453125 41.78125 "/>
<path style=" stroke:none;fill-rule:nonzero;fill:rgb(5.490196%,1.568627%,2.352941%);fill-opacity:1;" d="M 51.996094 42.71875 C 52.464844 42.625 53.109375 42.667969 53.21875 43.25 C 53.402344 43.917969 52.519531 43.832031 52.105469 43.851562 C 52.128906 43.917969 52.171875 44.054688 52.195312 44.125 C 52.550781 44.117188 52.875 43.957031 53.222656 43.917969 C 53.34375 44.761719 51.894531 44.886719 51.667969 44.140625 C 51.390625 43.636719 51.609375 43.082031 51.996094 42.71875 Z M 51.996094 42.71875 "/>
<path style=" stroke:none;fill-rule:nonzero;fill:rgb(61.960784%,34.901961%,23.529412%);fill-opacity:1;" d="M 51.90625 43.269531 C 52.191406 43.179688 52.484375 43.101562 52.777344 43.035156 C 52.832031 43.578125 52.164062 43.632812 51.90625 43.269531 Z M 51.90625 43.269531 "/>
<path style=" stroke:none;fill-rule:nonzero;fill:rgb(2.745098%,1.176471%,2.352941%);fill-opacity:1;" d="M 55.144531 44.140625 C 55.464844 44.1875 55.753906 43.773438 56.054688 44.007812 C 56.464844 44.355469 56.714844 44.910156 56.695312 45.449219 C 56.558594 45.5625 56.40625 45.644531 56.253906 45.726562 C 55.867188 45.402344 55.480469 45.066406 55 44.898438 C 54.8125 44.964844 54.625 45.035156 54.441406 45.105469 C 54.417969 45.335938 54.160156 45.644531 54.472656 45.78125 C 55.265625 46.246094 56.238281 46.351562 56.96875 46.953125 C 57.398438 47.535156 57.550781 48.257812 57.480469 48.972656 C 57.019531 50.75 54.550781 51.234375 53.277344 50.054688 C 52.480469 49.394531 52.472656 47.875 53.429688 47.355469 C 53.933594 47.042969 54.667969 47.046875 55.046875 47.550781 C 54.976562 47.71875 54.910156 47.886719 54.839844 48.054688 C 54.5 48.171875 54.082031 48.191406 53.84375 48.5 C 53.726562 48.933594 53.902344 49.453125 54.335938 49.632812 C 54.910156 49.886719 55.691406 49.828125 56.144531 49.363281 C 56.660156 48.773438 56.507812 47.738281 55.808594 47.359375 C 55.125 46.996094 54.328125 46.867188 53.683594 46.425781 C 53.175781 46.070312 53.089844 45.3125 53.457031 44.828125 C 53.808594 44.261719 54.511719 44.054688 55.144531 44.140625 Z M 55.144531 44.140625 "/>
<path style=" stroke:none;fill-rule:nonzero;fill:rgb(3.137255%,1.960784%,2.352941%);fill-opacity:1;" d="M 71.148438 44.914062 C 71.566406 44.539062 72.191406 44.914062 72.621094 44.554688 C 72.699219 44.554688 72.855469 44.554688 72.933594 44.554688 C 73.140625 44.886719 73.300781 45.242188 73.433594 45.617188 C 72.988281 46.015625 72.539062 45.605469 72.144531 45.359375 C 72.074219 45.367188 71.933594 45.382812 71.863281 45.390625 C 71.859375 45.511719 71.859375 45.632812 71.859375 45.757812 C 72.363281 45.988281 72.980469 46.046875 73.378906 46.464844 C 73.683594 46.792969 73.464844 47.238281 73.375 47.609375 C 72.972656 47.957031 72.460938 48.054688 71.945312 47.960938 C 71.757812 48.050781 71.5625 48.230469 71.34375 48.136719 C 70.980469 47.828125 70.746094 47.375 70.761719 46.890625 C 71.316406 46.597656 71.746094 47.140625 72.238281 47.3125 C 72.601562 47.457031 72.523438 47.003906 72.5625 46.808594 C 72.046875 46.636719 71.519531 46.484375 71.03125 46.230469 C 70.976562 46.140625 70.867188 45.964844 70.8125 45.875 C 70.804688 45.527344 70.875 45.152344 71.148438 44.914062 Z M 71.148438 44.914062 "/>
<path style=" stroke:none;fill-rule:nonzero;fill:rgb(2.745098%,1.176471%,2.352941%);fill-opacity:1;" d="M 65.085938 45.433594 C 65.507812 45.179688 66.03125 44.90625 66.515625 45.179688 C 67.449219 45.710938 67.5625 47.140625 66.960938 47.964844 C 66.664062 48.4375 65.957031 48.578125 65.511719 48.238281 C 65.25 48.101562 65.226562 47.671875 65.460938 47.5 C 65.679688 47.46875 65.90625 47.453125 66.128906 47.457031 C 66.484375 47.113281 66.578125 46.628906 66.34375 46.183594 C 66.257812 46.125 66.089844 46.003906 66.003906 45.945312 C 65.675781 45.949219 65.257812 46.03125 65.183594 46.414062 C 65.128906 46.929688 65.164062 47.449219 65.183594 47.964844 C 65.175781 48.265625 65.480469 48.410156 65.617188 48.644531 C 65.6875 48.886719 65.453125 49.050781 65.332031 49.226562 C 65.039062 49.511719 64.722656 49.929688 64.257812 49.804688 C 64.074219 49.378906 64.335938 48.941406 64.324219 48.507812 C 64.296875 47.8125 64.207031 47.121094 64.222656 46.425781 C 64.074219 46.351562 63.929688 46.28125 63.78125 46.210938 C 63.769531 46.125 63.742188 45.953125 63.726562 45.867188 C 64.027344 45.539062 64.355469 45.171875 64.828125 45.136719 C 64.890625 45.210938 65.019531 45.359375 65.085938 45.433594 Z M 65.085938 45.433594 "/>
<path style=" stroke:none;fill-rule:nonzero;fill:rgb(2.745098%,1.568627%,2.352941%);fill-opacity:1;" d="M 68.136719 45.265625 C 68.761719 44.628906 70.011719 44.75 70.402344 45.59375 C 70.558594 45.921875 70.652344 46.492188 70.242188 46.667969 C 69.734375 46.933594 69.15625 46.855469 68.609375 46.859375 C 68.621094 46.9375 68.652344 47.097656 68.667969 47.175781 C 69.273438 47.625 69.835938 46.988281 70.46875 47.011719 C 70.480469 47.203125 70.519531 47.398438 70.496094 47.59375 C 70.269531 48 69.777344 48.097656 69.378906 48.242188 C 68.617188 48.253906 67.851562 47.761719 67.730469 46.972656 C 67.554688 46.382812 67.714844 45.710938 68.136719 45.265625 Z M 68.136719 45.265625 "/>
<path style=" stroke:none;fill-rule:nonzero;fill:rgb(2.352941%,0.784314%,2.745098%);fill-opacity:1;" d="M 60.90625 45.839844 C 61.292969 45.25 62.09375 45.214844 62.707031 45.394531 C 63.464844 45.675781 63.613281 46.589844 63.589844 47.304688 C 63.457031 47.722656 63.285156 48.195312 62.863281 48.398438 C 62.453125 48.640625 61.96875 48.546875 61.523438 48.5625 C 60.542969 48.078125 60.238281 46.699219 60.90625 45.839844 Z M 60.90625 45.839844 "/>
<path style=" stroke:none;fill-rule:nonzero;fill:rgb(3.137255%,1.176471%,2.745098%);fill-opacity:1;" d="M 58.246094 45.777344 C 58.53125 45.523438 58.914062 45.460938 59.265625 45.359375 C 59.585938 45.476562 59.957031 45.539062 60.207031 45.796875 C 60.390625 46.046875 60.34375 46.4375 60.050781 46.589844 C 59.632812 46.421875 59.21875 46.195312 58.753906 46.265625 C 58.492188 46.734375 58.375 47.429688 58.863281 47.792969 C 59.382812 48.050781 59.875 47.519531 60.410156 47.605469 C 60.421875 47.878906 60.550781 48.253906 60.25 48.425781 C 59.84375 48.816406 59.234375 48.839844 58.714844 48.730469 C 57.5625 48.3125 57.324219 46.542969 58.246094 45.777344 Z M 58.246094 45.777344 "/>
<path style=" stroke:none;fill-rule:nonzero;fill:rgb(98.823529%,96.862745%,96.078431%);fill-opacity:1;" d="M 68.722656 45.6875 C 69.113281 45.597656 69.683594 45.5 69.714844 46.070312 C 69.300781 46.1875 68.875 46.246094 68.449219 46.265625 C 68.535156 46.070312 68.628906 45.878906 68.722656 45.6875 Z M 68.722656 45.6875 "/>
<path style=" stroke:none;fill-rule:nonzero;fill:rgb(98.431373%,98.823529%,98.431373%);fill-opacity:1;" d="M 61.679688 46.125 C 61.941406 46.007812 62.230469 46.09375 62.5 46.128906 C 62.699219 46.515625 62.859375 46.964844 62.683594 47.398438 C 62.523438 47.933594 61.65625 47.945312 61.476562 47.414062 C 61.414062 46.984375 61.320312 46.449219 61.679688 46.125 Z M 61.679688 46.125 "/>
<path style=" stroke:none;fill-rule:nonzero;fill:rgb(0%,0%,0%);fill-opacity:1;" d="M 88.960938 50.609375 C 90.042969 50.359375 90.828125 49.507812 91.664062 48.855469 C 93.179688 49.015625 94.621094 49.738281 95.679688 50.835938 C 96.605469 51.875 97.246094 53.242188 97.1875 54.664062 C 97.273438 56.554688 96.28125 58.371094 94.839844 59.53125 C 92.402344 61.550781 88.542969 61.589844 86.136719 59.496094 C 84.710938 58.296875 83.902344 56.371094 84.136719 54.507812 C 84.253906 53.375 84.726562 52.304688 85.414062 51.40625 C 86.601562 51.167969 87.777344 50.871094 88.960938 50.609375 Z M 88.960938 50.609375 "/>
<path style=" stroke:none;fill-rule:nonzero;fill:rgb(1.960784%,1.176471%,1.960784%);fill-opacity:1;" d="M 18.90625 51.914062 C 19.351562 52.359375 19.789062 52.820312 20.242188 53.261719 C 20.570312 53.542969 20.625 54 20.773438 54.386719 C 22.957031 60.601562 26.722656 66.242188 31.621094 70.613281 C 35.984375 74.527344 41.230469 77.453125 46.859375 79.046875 C 53.277344 80.875 60.164062 80.996094 66.636719 79.375 C 75.8125 77.140625 84.050781 71.34375 89.371094 63.5 C 89.820312 63.445312 90.269531 63.398438 90.726562 63.378906 C 85.316406 71.742188 76.714844 77.96875 67.082031 80.359375 C 64.769531 80.96875 62.394531 81.332031 60.007812 81.488281 C 56.742188 81.707031 53.453125 81.511719 50.234375 80.925781 C 43.894531 79.773438 37.855469 77.007812 32.796875 72.996094 C 26.089844 67.703125 21.109375 60.210938 18.90625 51.914062 Z M 18.90625 51.914062 "/>
<path style=" stroke:none;fill-rule:nonzero;fill:rgb(0%,0%,0%);fill-opacity:1;" d="M 79.703125 52.472656 C 79.898438 52.449219 80.101562 52.378906 80.296875 52.425781 C 81.488281 53.402344 82.335938 54.808594 82.527344 56.351562 C 83 59.371094 80.851562 62.390625 78.003906 63.246094 C 76.082031 63.875 73.871094 63.613281 72.195312 62.460938 C 70.878906 61.601562 69.902344 60.214844 69.589844 58.660156 C 69.222656 57.101562 69.585938 55.402344 70.449219 54.070312 C 70.554688 53.84375 70.832031 53.871094 71.035156 53.832031 C 73.9375 53.449219 76.820312 52.972656 79.703125 52.472656 Z M 79.703125 52.472656 "/>
<path style=" stroke:none;fill-rule:nonzero;fill:rgb(0%,0%,0%);fill-opacity:1;" d="M 39.644531 57.4375 C 40.273438 55.472656 41.808594 53.757812 43.78125 53.121094 C 44.050781 53.96875 44.714844 54.648438 45.5625 54.914062 C 47.421875 55.550781 49.421875 55.296875 51.351562 55.351562 C 52.300781 56.761719 52.792969 58.539062 52.4375 60.230469 C 51.9375 63.230469 49.117188 65.589844 46.109375 65.585938 C 43.917969 65.695312 41.722656 64.589844 40.492188 62.761719 C 39.433594 61.226562 39.148438 59.230469 39.644531 57.4375 Z M 39.644531 57.4375 "/>
<path style=" stroke:none;fill-rule:nonzero;fill:rgb(0%,0%,0%);fill-opacity:1;" d="M 56.21875 55.222656 C 59.433594 55.074219 62.648438 54.84375 65.847656 54.453125 C 66.976562 55.609375 67.707031 57.199219 67.640625 58.84375 C 67.625 60.773438 66.566406 62.617188 65.007812 63.71875 C 63.542969 64.773438 61.632812 65.1875 59.867188 64.796875 C 57.582031 64.34375 55.632812 62.507812 55.09375 60.210938 C 54.949219 59.183594 54.9375 58.117188 55.242188 57.117188 C 55.472656 56.441406 55.835938 55.820312 56.21875 55.222656 Z M 56.21875 55.222656 "/>
<path style=" stroke:none;fill-rule:nonzero;fill:rgb(1.960784%,1.176471%,1.568627%);fill-opacity:1;" d="M 36.28125 56.511719 C 36.519531 56.394531 36.761719 56.277344 37 56.160156 C 36.457031 57.488281 36.304688 58.929688 36.378906 60.351562 C 35.441406 59.257812 34.566406 58.113281 33.757812 56.921875 C 34.621094 56.957031 35.476562 56.835938 36.28125 56.511719 Z M 36.28125 56.511719 "/>
<path style=" stroke:none;fill-rule:nonzero;fill:rgb(1.568627%,0.784314%,1.568627%);fill-opacity:1;" d="M 29.402344 61.605469 C 30.640625 60.828125 31.808594 59.929688 33.058594 59.164062 C 33.355469 59.597656 33.644531 60.039062 33.914062 60.492188 C 32.785156 61.234375 31.679688 62.007812 30.554688 62.742188 C 30.019531 63.070312 29.433594 63.410156 28.785156 63.332031 C 27.632812 63.292969 26.710938 62.097656 26.886719 60.964844 C 27.015625 60.269531 27.503906 59.660156 28.144531 59.371094 C 28.394531 59.765625 28.679688 60.136719 28.917969 60.539062 C 28.695312 60.871094 28.226562 61.175781 28.429688 61.632812 C 28.679688 61.984375 29.109375 61.773438 29.402344 61.605469 Z M 29.402344 61.605469 "/>
<path style=" stroke:none;fill-rule:nonzero;fill:rgb(1.176471%,0.784314%,1.568627%);fill-opacity:1;" d="M 32.863281 62.917969 C 33.351562 62.460938 33.90625 61.910156 34.632812 61.992188 C 35.738281 62.144531 36.640625 63.125 36.816406 64.222656 C 36.871094 64.890625 36.464844 65.484375 35.964844 65.886719 C 34.867188 66.871094 33.847656 67.945312 32.710938 68.886719 C 32.425781 68.59375 32.136719 68.304688 31.855469 68.011719 C 32.378906 67.308594 33.085938 66.765625 33.730469 66.183594 C 33.414062 65.789062 33.074219 65.410156 32.730469 65.042969 C 32.042969 65.570312 31.457031 66.21875 30.796875 66.78125 C 30.5 66.511719 30.21875 66.226562 29.9375 65.941406 C 29.933594 65.886719 29.921875 65.773438 29.914062 65.714844 C 30.875 64.757812 31.90625 63.875 32.863281 62.917969 Z M 32.863281 62.917969 "/>
<path style=" stroke:none;fill-rule:nonzero;fill:rgb(0%,0%,0%);fill-opacity:1;" d="M 59.398438 67.265625 C 62.894531 67.71875 66.566406 65.773438 68.128906 62.582031 C 69.132812 63.945312 70.578125 64.960938 72.183594 65.46875 C 72.179688 65.5 72.167969 65.566406 72.160156 65.601562 C 66.757812 68.953125 60.226562 70.421875 53.925781 69.609375 C 51.539062 69.304688 49.183594 68.710938 46.957031 67.785156 C 49.542969 67.265625 51.8125 65.484375 53.007812 63.128906 C 54.332031 65.421875 56.78125 67 59.398438 67.265625 Z M 59.398438 67.265625 "/>
<path style=" stroke:none;fill-rule:nonzero;fill:rgb(99.215686%,98.823529%,98.431373%);fill-opacity:1;" d="M 34.300781 63.5 C 34.882812 63.460938 35.554688 64.011719 35.320312 64.636719 C 35.113281 64.882812 34.863281 65.082031 34.621094 65.292969 C 34.265625 64.945312 33.921875 64.589844 33.59375 64.210938 C 33.828125 63.972656 34.0625 63.734375 34.300781 63.5 Z M 34.300781 63.5 "/>
<path style=" stroke:none;fill-rule:nonzero;fill:rgb(1.568627%,0.784314%,1.568627%);fill-opacity:1;" d="M 38.292969 64.835938 C 38.652344 65.074219 38.996094 65.34375 39.34375 65.605469 C 38.886719 66.683594 38.449219 67.777344 37.953125 68.839844 C 37.9375 68.941406 37.898438 69.140625 37.882812 69.238281 C 38.859375 68.378906 39.882812 67.578125 40.882812 66.75 C 41.210938 67.027344 41.554688 67.289062 41.902344 67.542969 C 40.164062 69.019531 38.375 70.4375 36.621094 71.898438 C 36.292969 71.648438 35.957031 71.402344 35.621094 71.15625 C 36.496094 69.042969 37.414062 66.949219 38.292969 64.835938 Z M 38.292969 64.835938 "/>
<path style=" stroke:none;fill-rule:nonzero;fill:rgb(1.568627%,0.784314%,2.352941%);fill-opacity:1;" d="M 70.230469 69.351562 C 71.453125 68.664062 72.636719 67.917969 73.828125 67.183594 C 74.074219 67.566406 74.3125 67.960938 74.523438 68.367188 C 74.136719 68.605469 73.730469 68.8125 73.359375 69.078125 C 73.394531 69.28125 73.503906 69.457031 73.605469 69.632812 C 74.378906 70.929688 75.179688 72.210938 75.925781 73.527344 C 75.960938 73.550781 76.035156 73.601562 76.070312 73.625 C 75.679688 73.855469 75.296875 74.097656 74.925781 74.347656 C 73.902344 72.898438 73.109375 71.300781 72.136719 69.816406 C 71.722656 70.058594 71.316406 70.316406 70.886719 70.539062 C 70.667969 70.140625 70.445312 69.746094 70.230469 69.351562 Z M 70.230469 69.351562 "/>
<path style=" stroke:none;fill-rule:nonzero;fill:rgb(1.568627%,0.784314%,1.960784%);fill-opacity:1;" d="M 42.824219 68.667969 C 44.058594 68.300781 45.574219 69.089844 45.882812 70.378906 C 46.007812 71.058594 45.597656 71.65625 45.3125 72.238281 C 44.734375 73.421875 44.117188 74.585938 43.519531 75.761719 C 43.121094 75.585938 42.730469 75.378906 42.347656 75.167969 C 42.734375 74.382812 43.132812 73.605469 43.523438 72.824219 C 43.070312 72.59375 42.632812 72.3125 42.148438 72.15625 C 41.789062 72.917969 41.367188 73.648438 41.019531 74.417969 C 40.601562 74.300781 40.214844 74.101562 39.828125 73.914062 C 39.855469 73.558594 40.011719 73.238281 40.175781 72.933594 C 40.707031 71.875 41.269531 70.832031 41.785156 69.765625 C 41.992188 69.292969 42.308594 68.828125 42.824219 68.667969 Z M 42.824219 68.667969 "/>
<path style=" stroke:none;fill-rule:nonzero;fill:rgb(99.215686%,98.823529%,98.431373%);fill-opacity:1;" d="M 43.164062 70.160156 C 43.253906 70.128906 43.421875 70.0625 43.507812 70.027344 C 43.917969 70.113281 44.519531 70.296875 44.511719 70.816406 C 44.410156 71.144531 44.226562 71.4375 44.066406 71.738281 C 43.613281 71.515625 43.160156 71.292969 42.71875 71.046875 C 42.863281 70.75 43.011719 70.453125 43.164062 70.160156 Z M 43.164062 70.160156 "/>
<path style=" stroke:none;fill-rule:nonzero;fill:rgb(1.176471%,0.392157%,1.176471%);fill-opacity:1;" d="M 65.542969 71.03125 C 66.621094 70.730469 67.695312 69.867188 68.851562 70.300781 C 69.964844 70.621094 70.597656 72.035156 70.066406 73.082031 C 69.730469 73.765625 69.058594 74.175781 68.367188 74.421875 C 68.65625 75.191406 68.972656 75.953125 69.226562 76.734375 C 68.855469 76.898438 68.476562 77.046875 68.105469 77.21875 C 68.015625 77.222656 67.921875 77.222656 67.832031 77.230469 C 67.21875 75.65625 66.636719 74.078125 66.03125 72.503906 C 65.847656 72.019531 65.617188 71.546875 65.542969 71.03125 Z M 65.542969 71.03125 "/>
<path style=" stroke:none;fill-rule:nonzero;fill:rgb(1.960784%,1.176471%,2.352941%);fill-opacity:1;" d="M 47.894531 70.660156 C 48.625 70.445312 49.429688 70.601562 50.058594 71.015625 C 50.738281 71.546875 50.867188 72.523438 50.625 73.3125 C 50.222656 73.207031 49.828125 73.097656 49.4375 72.964844 C 49.398438 72.632812 49.46875 72.167969 49.105469 71.996094 C 48.886719 71.835938 48.609375 71.882812 48.363281 71.867188 C 48.285156 72.054688 48.210938 72.242188 48.136719 72.433594 C 48.824219 73.046875 49.753906 73.46875 50.105469 74.390625 C 50.496094 75.578125 49.648438 76.972656 48.433594 77.207031 C 48.253906 77.199219 48.078125 77.199219 47.902344 77.199219 C 47.273438 77.039062 46.570312 76.816406 46.230469 76.210938 C 45.867188 75.621094 45.972656 74.894531 46.070312 74.246094 C 46.519531 74.34375 46.96875 74.445312 47.398438 74.609375 C 47.429688 75.046875 47.378906 75.519531 47.707031 75.863281 C 47.867188 75.863281 48.183594 75.867188 48.339844 75.867188 C 48.546875 75.574219 48.800781 75.25 48.753906 74.871094 C 48.269531 74.207031 47.394531 73.945312 46.980469 73.21875 C 46.605469 72.3125 46.972656 71.074219 47.894531 70.660156 Z M 47.894531 70.660156 "/>
<path style=" stroke:none;fill-rule:nonzero;fill:rgb(1.568627%,0.392157%,1.960784%);fill-opacity:1;" d="M 63.042969 71.449219 C 63.527344 71.347656 64.011719 71.242188 64.503906 71.171875 C 64.949219 73.339844 65.324219 75.519531 65.78125 77.683594 C 65.382812 77.78125 64.980469 77.867188 64.578125 77.929688 C 64.527344 77.960938 64.429688 78.023438 64.378906 78.058594 C 64.179688 77.515625 64.105469 76.9375 63.992188 76.378906 C 63.675781 74.734375 63.351562 73.09375 63.042969 71.449219 Z M 63.042969 71.449219 "/>
<path style=" stroke:none;fill-rule:nonzero;fill:rgb(99.215686%,99.215686%,98.431373%);fill-opacity:1;" d="M 67.394531 71.894531 C 67.789062 71.730469 68.210938 71.613281 68.644531 71.703125 C 68.8125 72.011719 68.941406 72.375 68.785156 72.71875 C 68.527344 72.972656 68.167969 73.070312 67.828125 73.164062 C 67.679688 72.742188 67.523438 72.324219 67.394531 71.894531 Z M 67.394531 71.894531 "/>
<path style=" stroke:none;fill-rule:nonzero;fill:rgb(1.176471%,0.392157%,0.784314%);fill-opacity:1;" d="M 52.414062 72.625 C 53.125 71.503906 54.925781 71.351562 55.828125 72.316406 C 56.105469 72.585938 56.230469 72.960938 56.386719 73.304688 C 56.386719 73.652344 56.382812 74.003906 56.378906 74.359375 C 55.921875 74.375 55.46875 74.332031 55.015625 74.285156 C 55.011719 74.050781 55.007812 73.8125 55.007812 73.582031 C 54.710938 73.253906 54.25 73.0625 53.828125 73.261719 C 53.453125 73.527344 53.519531 74.035156 53.433594 74.4375 C 53.367188 75.089844 53.207031 75.738281 53.214844 76.402344 C 53.269531 76.484375 53.386719 76.65625 53.445312 76.742188 C 53.792969 76.945312 54.179688 76.902344 54.535156 76.730469 C 54.632812 76.496094 54.730469 76.261719 54.828125 76.03125 C 55.277344 76.078125 55.722656 76.148438 56.171875 76.199219 C 56.171875 76.875 55.945312 77.640625 55.3125 77.984375 C 54.328125 78.519531 52.914062 78.4375 52.203125 77.480469 C 51.632812 76.847656 51.769531 75.933594 51.914062 75.164062 C 52.09375 74.320312 52.085938 73.425781 52.414062 72.625 Z M 52.414062 72.625 "/>
<path style=" stroke:none;fill-rule:nonzero;fill:rgb(0.784314%,0.392157%,1.176471%);fill-opacity:1;" d="M 57.445312 71.992188 C 58.304688 71.871094 59.171875 71.808594 60.039062 71.808594 C 60.480469 71.792969 60.882812 72.007812 61.261719 72.210938 C 61.886719 72.984375 62.003906 74.121094 61.53125 75 C 61.375 75.304688 61.097656 75.523438 60.9375 75.824219 C 61.300781 76.683594 61.855469 77.445312 62.277344 78.277344 C 61.785156 78.285156 61.296875 78.332031 60.808594 78.363281 C 60.261719 77.535156 59.824219 76.636719 59.21875 75.851562 C 59.226562 76.734375 59.375 77.605469 59.394531 78.488281 C 58.929688 78.527344 58.472656 78.59375 58.003906 78.609375 C 57.949219 78.136719 57.933594 77.660156 57.878906 77.1875 C 57.785156 76.058594 57.683594 74.925781 57.582031 73.792969 C 57.511719 73.195312 57.484375 72.59375 57.445312 71.992188 Z M 57.445312 71.992188 "/>
<path style=" stroke:none;fill-rule:nonzero;fill:rgb(99.607843%,99.215686%,98.431373%);fill-opacity:1;" d="M 59.003906 73.195312 C 59.476562 73.050781 59.964844 73.136719 60.371094 73.414062 C 60.429688 73.597656 60.484375 73.785156 60.542969 73.972656 C 60.429688 74.191406 60.335938 74.457031 60.105469 74.582031 C 59.792969 74.675781 59.472656 74.726562 59.148438 74.78125 C 59.042969 74.257812 59.007812 73.726562 59.003906 73.195312 Z M 59.003906 73.195312 "/>
</g>
</svg>
